<svg xmlns="http://www.w3.org/2000/svg" viewBox="0 0 265.55 66.56"><defs><style>.cls-1{fill:#4b4a4a;}.cls-2{fill:#f7b81f;}</style></defs><title>Coders-Lab-CI AKTUALNE_2018</title><g id="fonty"><path class="cls-1" d="M37.72,42.07c0,5.63.45,16.36,17.25,16.36A56,56,0,0,0,66,57.3v-6a68.58,68.58,0,0,1-11,.94c-8.76,0-10.27-4.38-10.27-10.13V31.87C44.7,26,46.37,21.44,55,21.44a67.1,67.1,0,0,1,11,1V16.34a55.54,55.54,0,0,0-11-1.12c-16.8,0-17.25,10.73-17.25,16.36Z" transform="translate(-37.72 -15.22)"/><path class="cls-1" d="M96.08,39.34C96.08,35.13,95.8,27,82.74,27S69.35,35.13,69.35,39.34V46.1c0,4.27.34,12.33,13.39,12.33S96.08,50.37,96.08,46.1ZM89.27,46.1c0,5.16-2,6.4-6.53,6.4-4.35,0-6.58-1.13-6.58-6.4V39.34c0-5.21,2-6.34,6.58-6.34s6.53,1.07,6.53,6.34Z" transform="translate(-37.72 -15.22)"/><path class="cls-1" d="M119.4,51.61a25.43,25.43,0,0,1-5.8.83c-4.86,0-6.09-1.72-6.09-6.34V39.4c0-5.21,1.79-6.4,6.09-6.4a21.94,21.94,0,0,1,5.8.71ZM112.65,27c-9.65.18-12,5.81-12,12.39v6.34c0,5.93,1.51,12.69,11.5,12.69a19.34,19.34,0,0,0,8.2-2l.45,1.48h5.41V15.75H119.4V28a21.55,21.55,0,0,0-6.75-1" transform="translate(-37.72 -15.22)"/><path class="cls-1" d="M156.27,44.62c.17-1.84.28-3.44.28-4.86,0-10-4.57-12.75-11.94-12.75-8.26,0-13.22,2.61-13.22,15.83,0,11.38,3.4,15.59,14.45,15.59a40.94,40.94,0,0,0,8.59-1.07V51.67a50,50,0,0,1-8,.89c-4.57,0-8.26-.41-8.26-7.94Zm-18-5c.4-5.4,2.74-6.7,6.31-6.7,3.29,0,5.41,1.3,5.41,5.39a12,12,0,0,1-.05,1.31Z" transform="translate(-37.72 -15.22)"/><path class="cls-1" d="M166.63,28.08h-5.52V58.43h6.81V35.85c3.12-1.19,8.26-1.55,10.38-1.61V27.55c-3.8.12-7.42,1.89-10.88,3.26Z" transform="translate(-37.72 -15.22)"/><path class="cls-1" d="M181,56.53a29.15,29.15,0,0,0,9.32,1.78c9.21,0,12.28-2.38,12.28-8.72,0-4.26-1.4-6.28-5.41-8.3l-6.76-3.43c-1.56-.83-2.06-1.07-2.06-2.61s.78-2.31,5-2.31a27.13,27.13,0,0,1,7.92,1.24v-6a25.06,25.06,0,0,0-7.7-1.3c-9.54,0-12.05,2.67-12.05,8.06,0,4.51,1.67,6.46,6,8.66l5.3,2.66c1.5.77,2.84,1.48,2.84,3.2,0,2.32-1,2.85-5.41,2.85A24.08,24.08,0,0,1,181,50.24Z" transform="translate(-37.72 -15.22)"/><polygon class="cls-2" points="182.76 0.66 182.76 42.8 206.47 42.8 206.47 36.58 189.73 36.58 189.73 0.66 182.76 0.66"/><path class="cls-2" d="M246.6,46c0,5.81,1.45,12.45,11.44,12.45a18.18,18.18,0,0,0,7.87-2l.44,1.48h5.41V28.79A40.35,40.35,0,0,0,259.66,27C247,27,246.6,35,246.6,39.4Zm6.86-6.34c0-4.68,1.06-6.64,6.08-6.64a36.68,36.68,0,0,1,5.42.47v18a20.15,20.15,0,0,1-5.42.95c-4.85,0-6-1.72-6.08-6.4Z" transform="translate(-37.72 -15.22)"/><path class="cls-2" d="M284.58,33.83a24,24,0,0,1,5.81-.71c4.24,0,6,1.19,6,6.4v6.7c0,4.63-1.23,6.34-6,6.34a57,57,0,0,1-5.81-.29Zm6.75-6.69a21.66,21.66,0,0,0-6.75,1V15.87h-6.81V57.66a88,88,0,0,0,12.5.89c11.67,0,13-6.7,13-12.68V39.52c0-6.58-2.35-12.21-11.95-12.38" transform="translate(-37.72 -15.22)"/><rect class="cls-2" x="0.15" y="59.25" width="65.96" height="1.36"/><rect class="cls-2" x="199.6" y="59.25" width="65.96" height="1.36"/><path class="cls-1" d="M122.66,78.18a3.16,3.16,0,0,1-1.23,2.65,5.4,5.4,0,0,1-3.35,1,8.3,8.3,0,0,1-3.53-.59V79.75a10,10,0,0,0,3.58.72,3.75,3.75,0,0,0,2.26-.57,1.89,1.89,0,0,0,.76-1.58,2,2,0,0,0-.27-1.1,2.55,2.55,0,0,0-.9-.79,13.1,13.1,0,0,0-1.92-.82,6.24,6.24,0,0,1-2.57-1.52,3.4,3.4,0,0,1-.77-2.3,2.86,2.86,0,0,1,1.12-2.38,4.7,4.7,0,0,1,3-.88,8.78,8.78,0,0,1,3.54.71l-.47,1.3a8.15,8.15,0,0,0-3.11-.67,3,3,0,0,0-1.85.51,1.7,1.7,0,0,0-.67,1.42,2.21,2.21,0,0,0,.24,1.1,2.3,2.3,0,0,0,.84.79,10.19,10.19,0,0,0,1.79.78A7.13,7.13,0,0,1,121.9,76,3,3,0,0,1,122.66,78.18Z" transform="translate(-37.72 -15.22)"/><path class="cls-1" d="M136.47,81.61h-8.86V80.43l6.84-10.36h-6.63V68.72h8.45v1.17l-6.84,10.36h7Z" transform="translate(-37.72 -15.22)"/><path class="cls-1" d="M151.63,81.61h-1.77l-4.7-6.25-1.34,1.19v5.06h-1.5V68.72h1.5v6.39l5.84-6.39h1.77l-5.18,5.6Z" transform="translate(-37.72 -15.22)"/><path class="cls-1" d="M167.94,75.14A7.11,7.11,0,0,1,166.38,80,5.52,5.52,0,0,1,162,81.78a5.58,5.58,0,0,1-4.4-1.74,7.15,7.15,0,0,1-1.54-4.91,7,7,0,0,1,1.55-4.88,5.57,5.57,0,0,1,4.4-1.73,5.47,5.47,0,0,1,4.34,1.76A7.08,7.08,0,0,1,167.94,75.14Zm-10.27,0a6.11,6.11,0,0,0,1.12,4,4.55,4.55,0,0,0,6.47,0,6.19,6.19,0,0,0,1.09-4,6.19,6.19,0,0,0-1.08-3.94A3.9,3.9,0,0,0,162,69.86a4,4,0,0,0-3.25,1.35A6,6,0,0,0,157.67,75.14Z" transform="translate(-37.72 -15.22)"/><path class="cls-1" d="M174.17,81.61V77.13l-.92.52-.59-1,1.51-.89v-7h1.5v6.15l2.62-1.53.59,1.06-3.21,1.86v4h5.69v1.36Z" transform="translate(-37.72 -15.22)"/><path class="cls-1" d="M195.07,81.61l-1.6-4.1H188.3l-1.58,4.1H185.2l5.09-12.94h1.26l5.07,12.94ZM193,76.16l-1.5-4c-.19-.51-.39-1.13-.6-1.87a17,17,0,0,1-.55,1.87l-1.52,4Z" transform="translate(-37.72 -15.22)"/><path class="cls-1" d="M209.8,81.61V68.72h1.5V81.61Z" transform="translate(-37.72 -15.22)"/><path class="cls-1" d="M222.16,81.61h-1.5V70.05h-4.08V68.72h9.66v1.33h-4.08Z" transform="translate(-37.72 -15.22)"/></g></svg>